<mxfile host="Electron" modified="2023-09-21T10:51:26.645Z" agent="Mozilla/5.0 (Windows NT 10.0; Win64; x64) AppleWebKit/537.36 (KHTML, like Gecko) draw.io/21.7.5 Chrome/114.0.5735.289 Electron/25.8.1 Safari/537.36" etag="k51us1nZVErwiQ9ql8Zh" version="21.7.5" type="device">
  <diagram name="Pagina-1" id="fQtvIQy1IttKtHPUSm20">
    <mxGraphModel dx="1105" dy="654" grid="1" gridSize="10" guides="1" tooltips="1" connect="1" arrows="1" fold="1" page="1" pageScale="1" pageWidth="827" pageHeight="1169" math="0" shadow="0">
      <root>
        <mxCell id="0" />
        <mxCell id="1" parent="0" />
        <mxCell id="G0hxotjl89zj5YkqeKat-57" value="" style="edgeStyle=orthogonalEdgeStyle;rounded=0;orthogonalLoop=1;jettySize=auto;html=1;startArrow=classic;startFill=1;" edge="1" parent="1" source="G0hxotjl89zj5YkqeKat-8" target="G0hxotjl89zj5YkqeKat-43">
          <mxGeometry relative="1" as="geometry" />
        </mxCell>
        <mxCell id="G0hxotjl89zj5YkqeKat-8" value="ESP32&lt;br&gt;module" style="whiteSpace=wrap;html=1;shadow=1;fontSize=18;fillColor=#f5f5f5;strokeColor=#666666;" vertex="1" parent="1">
          <mxGeometry x="290" y="290" width="120" height="100" as="geometry" />
        </mxCell>
        <mxCell id="G0hxotjl89zj5YkqeKat-23" value="" style="endArrow=classic;startArrow=classic;html=1;rounded=0;entryX=0;entryY=0.5;entryDx=0;entryDy=0;exitX=1;exitY=0.5;exitDx=0;exitDy=0;" edge="1" parent="1" source="G0hxotjl89zj5YkqeKat-43">
          <mxGeometry width="50" height="50" relative="1" as="geometry">
            <mxPoint x="634.0700000000002" y="334.54999999999995" as="sourcePoint" />
            <mxPoint x="690" y="340" as="targetPoint" />
          </mxGeometry>
        </mxCell>
        <mxCell id="G0hxotjl89zj5YkqeKat-24" value="I2C" style="edgeLabel;html=1;align=center;verticalAlign=middle;resizable=0;points=[];fontSize=18;" vertex="1" connectable="0" parent="G0hxotjl89zj5YkqeKat-23">
          <mxGeometry x="-0.2139" y="4" relative="1" as="geometry">
            <mxPoint x="12" y="4" as="offset" />
          </mxGeometry>
        </mxCell>
        <mxCell id="G0hxotjl89zj5YkqeKat-38" style="edgeStyle=orthogonalEdgeStyle;rounded=0;orthogonalLoop=1;jettySize=auto;html=1;entryX=0.5;entryY=0;entryDx=0;entryDy=0;" edge="1" parent="1" source="G0hxotjl89zj5YkqeKat-35" target="G0hxotjl89zj5YkqeKat-8">
          <mxGeometry relative="1" as="geometry">
            <mxPoint x="445" y="260" as="targetPoint" />
            <Array as="points">
              <mxPoint x="350" y="280" />
              <mxPoint x="350" y="280" />
            </Array>
          </mxGeometry>
        </mxCell>
        <mxCell id="G0hxotjl89zj5YkqeKat-39" style="edgeStyle=orthogonalEdgeStyle;rounded=0;orthogonalLoop=1;jettySize=auto;html=1;entryX=0.5;entryY=0;entryDx=0;entryDy=0;" edge="1" parent="1" source="G0hxotjl89zj5YkqeKat-35" target="G0hxotjl89zj5YkqeKat-65">
          <mxGeometry relative="1" as="geometry">
            <mxPoint x="750" y="310" as="targetPoint" />
          </mxGeometry>
        </mxCell>
        <mxCell id="G0hxotjl89zj5YkqeKat-40" value="&lt;font style=&quot;font-size: 18px;&quot;&gt;5V&lt;/font&gt;" style="edgeLabel;html=1;align=center;verticalAlign=middle;resizable=0;points=[];rotation=0;" vertex="1" connectable="0" parent="G0hxotjl89zj5YkqeKat-39">
          <mxGeometry x="-0.3131" y="-1" relative="1" as="geometry">
            <mxPoint x="-168" y="84" as="offset" />
          </mxGeometry>
        </mxCell>
        <mxCell id="G0hxotjl89zj5YkqeKat-64" value="&lt;font style=&quot;font-size: 18px;&quot;&gt;5V&lt;/font&gt;" style="edgeLabel;html=1;align=center;verticalAlign=middle;resizable=0;points=[];" vertex="1" connectable="0" parent="G0hxotjl89zj5YkqeKat-39">
          <mxGeometry x="0.5919" y="1" relative="1" as="geometry">
            <mxPoint y="43" as="offset" />
          </mxGeometry>
        </mxCell>
        <mxCell id="G0hxotjl89zj5YkqeKat-62" style="edgeStyle=orthogonalEdgeStyle;rounded=0;orthogonalLoop=1;jettySize=auto;html=1;entryX=0.5;entryY=0;entryDx=0;entryDy=0;" edge="1" parent="1" source="G0hxotjl89zj5YkqeKat-35" target="G0hxotjl89zj5YkqeKat-43">
          <mxGeometry relative="1" as="geometry" />
        </mxCell>
        <mxCell id="G0hxotjl89zj5YkqeKat-63" value="&lt;font style=&quot;font-size: 18px;&quot;&gt;5V&lt;/font&gt;" style="edgeLabel;html=1;align=center;verticalAlign=middle;resizable=0;points=[];" vertex="1" connectable="0" parent="G0hxotjl89zj5YkqeKat-62">
          <mxGeometry x="0.4709" y="-1" relative="1" as="geometry">
            <mxPoint x="1" y="22" as="offset" />
          </mxGeometry>
        </mxCell>
        <mxCell id="G0hxotjl89zj5YkqeKat-35" value="&lt;span&gt;Power manager board&lt;/span&gt;" style="whiteSpace=wrap;html=1;shadow=1;fontSize=18;fillColor=#f5f5f5;strokeColor=#666666;" vertex="1" parent="1">
          <mxGeometry x="190" y="90" width="120" height="70" as="geometry" />
        </mxCell>
        <mxCell id="G0hxotjl89zj5YkqeKat-37" value="" style="edgeStyle=orthogonalEdgeStyle;rounded=0;orthogonalLoop=1;jettySize=auto;html=1;" edge="1" parent="1" source="G0hxotjl89zj5YkqeKat-36" target="G0hxotjl89zj5YkqeKat-35">
          <mxGeometry relative="1" as="geometry" />
        </mxCell>
        <mxCell id="G0hxotjl89zj5YkqeKat-36" value="&lt;span&gt;PV cell&lt;/span&gt;" style="whiteSpace=wrap;html=1;shadow=1;fontSize=18;fillColor=#f5f5f5;strokeColor=#666666;" vertex="1" parent="1">
          <mxGeometry x="20" y="90" width="120" height="70" as="geometry" />
        </mxCell>
        <mxCell id="G0hxotjl89zj5YkqeKat-43" value="LoRa module" style="whiteSpace=wrap;html=1;shadow=1;fontSize=18;fillColor=#f5f5f5;strokeColor=#666666;" vertex="1" parent="1">
          <mxGeometry x="480" y="290" width="120" height="100" as="geometry" />
        </mxCell>
        <mxCell id="G0hxotjl89zj5YkqeKat-58" value="" style="edgeStyle=orthogonalEdgeStyle;rounded=0;orthogonalLoop=1;jettySize=auto;html=1;startArrow=classic;startFill=1;" edge="1" parent="1" source="G0hxotjl89zj5YkqeKat-53" target="G0hxotjl89zj5YkqeKat-8">
          <mxGeometry relative="1" as="geometry" />
        </mxCell>
        <mxCell id="G0hxotjl89zj5YkqeKat-53" value="CP2102N&lt;br&gt;UART-USB" style="whiteSpace=wrap;html=1;shadow=1;fontSize=18;fillColor=#f5f5f5;strokeColor=#666666;" vertex="1" parent="1">
          <mxGeometry x="290" y="464" width="120" height="100" as="geometry" />
        </mxCell>
        <mxCell id="G0hxotjl89zj5YkqeKat-65" value="SEN55" style="whiteSpace=wrap;html=1;shadow=1;fontSize=18;fillColor=#f5f5f5;strokeColor=#666666;" vertex="1" parent="1">
          <mxGeometry x="690" y="290" width="120" height="100" as="geometry" />
        </mxCell>
      </root>
    </mxGraphModel>
  </diagram>
</mxfile>
